<svg width="36" height="37" viewBox="0 0 36 37" fill="none" xmlns="http://www.w3.org/2000/svg">
<path d="M34.5898 15.8445C33.2398 7.91328 26.3211 1.89453 17.9961 1.89453C9.67109 1.89453 2.75234 7.91328 1.40234 15.8445L17.9961 7.51953L34.5898 15.8445ZM1.40234 21.6945C2.75234 29.6258 9.67109 35.6445 17.9961 35.6445C26.3211 35.6445 33.2398 29.6258 34.5898 21.6945L17.9961 30.0195L1.40234 21.6945Z" fill="#699635"/>
<path d="M17.9961 7.51953L1.40234 15.8445C1.23359 16.8008 1.12109 17.757 1.12109 18.7695C1.12109 19.782 1.23359 20.7383 1.40234 21.6945L17.9961 30.0195L34.5898 21.6945C34.7586 20.7383 34.8711 19.782 34.8711 18.7695C34.8711 17.757 34.7586 16.8008 34.5898 15.8445L17.9961 7.51953Z" fill="#FFE62E"/>
<path d="M14.6211 16.7446C12.8211 16.7446 11.1336 17.1384 9.61484 17.8134C9.55859 18.1509 9.55859 18.4321 9.55859 18.7696C9.55859 23.4384 13.3273 27.2071 17.9961 27.2071C21.1461 27.2071 23.9023 25.4634 25.3648 22.9321C23.2836 19.2759 19.2336 16.7446 14.6211 16.7446Z" fill="#428BC1"/>
<path d="M26.3211 20.1195C26.3773 19.6695 26.4336 19.2195 26.4336 18.7695C26.4336 14.1008 22.6648 10.332 17.9961 10.332C14.6773 10.332 11.8086 12.2445 10.4023 15.057C11.7523 14.6633 13.1586 14.4383 14.6211 14.4383C19.4023 14.4383 23.6211 16.6883 26.3211 20.1195Z" fill="#428BC1"/>
<path d="M14.6215 14.4385C13.159 14.4385 11.7527 14.6635 10.4027 15.0572C10.009 15.901 9.72773 16.801 9.61523 17.8135C11.134 17.1385 12.8215 16.7447 14.6215 16.7447C19.234 16.7447 23.284 19.2197 25.3652 22.876C25.8715 22.0322 26.1527 21.076 26.3215 20.1197C23.6215 16.6885 19.4027 14.4385 14.6215 14.4385Z" fill="white"/>
<path d="M12.3711 19.332C12.6818 19.332 12.9336 19.0802 12.9336 18.7695C12.9336 18.4589 12.6818 18.207 12.3711 18.207C12.0604 18.207 11.8086 18.4589 11.8086 18.7695C11.8086 19.0802 12.0604 19.332 12.3711 19.332Z" fill="white"/>
<path d="M14.6211 22.707C14.9318 22.707 15.1836 22.4552 15.1836 22.1445C15.1836 21.8339 14.9318 21.582 14.6211 21.582C14.3104 21.582 14.0586 21.8339 14.0586 22.1445C14.0586 22.4552 14.3104 22.707 14.6211 22.707Z" fill="white"/>
<path d="M17.9961 22.707C18.3068 22.707 18.5586 22.4552 18.5586 22.1445C18.5586 21.8339 18.3068 21.582 17.9961 21.582C17.6854 21.582 17.4336 21.8339 17.4336 22.1445C17.4336 22.4552 17.6854 22.707 17.9961 22.707Z" fill="white"/>
<path d="M17.9961 24.957C18.3068 24.957 18.5586 24.7052 18.5586 24.3945C18.5586 24.0839 18.3068 23.832 17.9961 23.832C17.6854 23.832 17.4336 24.0839 17.4336 24.3945C17.4336 24.7052 17.6854 24.957 17.9961 24.957Z" fill="white"/>
<path d="M22.4961 22.707C22.8068 22.707 23.0586 22.4552 23.0586 22.1445C23.0586 21.8339 22.8068 21.582 22.4961 21.582C22.1854 21.582 21.9336 21.8339 21.9336 22.1445C21.9336 22.4552 22.1854 22.707 22.4961 22.707Z" fill="white"/>
<path d="M22.4961 24.957C22.8068 24.957 23.0586 24.7052 23.0586 24.3945C23.0586 24.0839 22.8068 23.832 22.4961 23.832C22.1854 23.832 21.9336 24.0839 21.9336 24.3945C21.9336 24.7052 22.1854 24.957 22.4961 24.957Z" fill="white"/>
<path d="M20.2461 23.832C20.5568 23.832 20.8086 23.5802 20.8086 23.2695C20.8086 22.9589 20.5568 22.707 20.2461 22.707C19.9354 22.707 19.6836 22.9589 19.6836 23.2695C19.6836 23.5802 19.9354 23.832 20.2461 23.832Z" fill="white"/>
<path d="M12.3711 21.582C12.6818 21.582 12.9336 21.3302 12.9336 21.0195C12.9336 20.7089 12.6818 20.457 12.3711 20.457C12.0604 20.457 11.8086 20.7089 11.8086 21.0195C11.8086 21.3302 12.0604 21.582 12.3711 21.582Z" fill="white"/>
</svg>
