<svg xmlns="http://www.w3.org/2000/svg" width="121" height="120" viewBox="0 0 121 120" fill="none">
  <path d="M49.5825 98.4353C40.0392 112.767 30.1102 111.43 26.3386 108.969C18.1107 101.693 23.5492 88.045 27.2969 82.1304C32.6526 73.2155 38.3656 69.5315 43.1682 68.3337C47.9708 67.1359 52.2569 69.7108 54.7405 75.2858C57.2241 80.8609 52.6154 93.0633 49.5825 98.4353Z" fill="#11FFFF" fill-opacity="0.9"/>
  <path d="M30.5889 90.6241C13.9205 94.9423 7.41246 87.3252 6.24197 82.9769C4.96135 72.0682 18.1145 65.5226 24.8512 63.6134C34.7868 60.5403 41.5009 61.6038 45.8788 63.9133C50.2567 66.2228 51.7342 70.9995 49.8679 76.8104C48.0017 82.6214 36.4309 88.6427 30.5889 90.6241Z" fill="#11FFFF" fill-opacity="0.85"/>
  <path d="M20.9899 73.3773C3.83257 71.9254 0.217733 62.5816 0.554971 58.0911C2.96319 47.3748 17.5425 45.5598 24.5312 45.9919C34.9237 46.3864 40.9055 49.6156 44.2702 53.2458C47.6349 56.8761 47.4453 61.8725 43.7581 66.7361C40.071 71.5998 27.1584 73.4446 20.9899 73.3773Z" fill="#FF12FF"/>
  <path d="M19.9387 55.6539C4.66297 47.7082 4.92424 37.6929 6.96434 33.6785C13.3128 24.7154 27.467 28.6535 33.7506 31.743C43.1901 36.1083 47.4675 41.3916 49.1752 46.0374C50.8829 50.6833 48.7842 55.2215 43.5087 58.2906C38.2333 61.3598 25.6058 58.091 19.9387 55.6539Z" fill="#FF12FF" fill-opacity="0.9"/>
  <path d="M23.3984 34.7564C15.5614 19.4247 21.5823 11.4169 25.5724 9.32954C35.9422 5.70909 45.1895 17.1256 48.517 23.2865C53.6756 32.3169 54.0965 39.1016 52.7935 43.8768C51.4905 48.6519 47.1489 51.1321 41.0713 50.5731C34.9937 50.0142 26.602 40.0283 23.3984 34.7564Z" fill="#FF12FF" fill-opacity="0.85"/>
  <path d="M88.1431 86.8905C94.3006 102.97 87.4602 110.291 83.2703 111.941C72.5736 114.435 64.5963 102.097 61.9448 95.6166C57.7784 86.0876 58.0835 79.2967 59.8882 74.6877C61.6929 70.0787 66.2742 68.0756 72.2576 69.2795C78.2409 70.4833 85.52 81.3071 88.1431 86.8905Z" fill="#FFE030" fill-opacity="0.85"/>
  <path d="M97.3453 69.574C110.824 80.2889 108.656 90.0703 105.887 93.6216C97.9449 101.208 84.8024 94.6413 79.224 90.4095C70.791 84.3229 67.6005 78.3204 66.8109 73.434C66.0213 68.5476 68.9475 64.4934 74.7117 62.4874C80.4759 60.4815 92.2475 66.1001 97.3453 69.574Z" fill="#FFE030" fill-opacity="0.9"/>
  <path d="M73.1955 98.1871C72.2119 115.378 62.9701 119.246 58.4721 119.031C47.6941 116.916 45.4824 102.391 45.7238 95.3936C45.8348 84.9942 48.8998 78.9266 52.437 75.4642C55.9741 72.0018 60.9738 72.0551 65.9362 75.6083C70.8985 79.1615 73.0947 92.019 73.1955 98.1871Z" fill="#11FFFF"/>
  <path d="M85.9828 30.1134C102.117 24.0989 109.376 31.004 110.989 35.2083C113.388 45.9267 100.98 53.7942 94.4761 56.3882C84.9105 60.4698 78.1225 60.1045 73.5297 58.259C68.9369 56.4134 66.9746 51.8146 68.2315 45.8421C69.4884 39.8696 80.3763 32.6869 85.9828 30.1134Z" fill="#8CF20A" fill-opacity="0.85"/>
  <path d="M99.1411 47.4251C116.249 49.3717 119.593 58.816 119.126 63.2949C116.409 73.9372 101.784 75.3305 94.8106 74.6969C84.4338 74.0025 78.5477 70.6019 75.2892 66.876C72.0307 63.1501 72.3645 58.1613 76.1905 53.4061C80.0166 48.651 92.977 47.1797 99.1411 47.4251Z" fill="#FFE030"/>
  <path d="M68.4203 19.9961C79.0309 6.43529 88.8287 8.52762 92.4012 11.2689C100.049 19.1525 93.5836 32.3452 89.3949 37.9562C83.3736 46.4358 77.3958 49.6725 72.5157 50.4998C67.6356 51.3271 63.5589 48.4323 61.5085 42.6837C59.4582 36.9351 64.9858 25.1206 68.4203 19.9961Z" fill="#8CF20A" fill-opacity="0.9"/>
  <path d="M44.8453 20.9957C46.1546 3.827 55.4681 0.134694 59.9612 0.434632C70.6972 2.75378 72.6331 17.3175 72.2591 24.3095C71.9509 34.705 68.7715 40.7134 65.1693 44.1081C61.5671 47.5029 56.5693 47.3547 51.6752 43.7081C46.7811 40.0615 44.8291 27.1646 44.8453 20.9957Z" fill="#8CF20A"/>
</svg>