<svg width="117" height="117" viewBox="0 0 117 117" fill="none" xmlns="http://www.w3.org/2000/svg">
<path d="M58.4896 0C50.8291 0 43.2437 1.50884 36.1664 4.44036C29.0891 7.37189 22.6584 11.6687 17.2417 17.0854C6.30207 28.0251 0.15625 42.8624 0.15625 58.3333C0.15625 73.8043 6.30207 88.6416 17.2417 99.5812C22.6584 104.998 29.0891 109.295 36.1664 112.226C43.2437 115.158 50.8291 116.667 58.4896 116.667C73.9605 116.667 88.7979 110.521 99.7375 99.5812C110.677 88.6416 116.823 73.8043 116.823 58.3333C116.823 51.5667 115.598 44.8583 113.265 38.5583L103.931 47.8917C104.748 51.3333 105.156 54.8333 105.156 58.3333C105.156 70.7101 100.24 82.58 91.4879 91.3316C82.7362 100.083 70.8663 105 58.4896 105C46.1128 105 34.243 100.083 25.4913 91.3316C16.7396 82.58 11.8229 70.7101 11.8229 58.3333C11.8229 45.9566 16.7396 34.0867 25.4913 25.335C34.243 16.5833 46.1128 11.6667 58.4896 11.6667C61.9896 11.6667 65.4896 12.075 68.9312 12.8917L78.3229 3.5C71.9646 1.225 65.2562 0 58.4896 0ZM99.3229 0L75.9896 23.3333V32.0833L61.1146 46.9583C60.2396 46.6667 59.3646 46.6667 58.4896 46.6667C55.3954 46.6667 52.4279 47.8958 50.24 50.0838C48.0521 52.2717 46.8229 55.2391 46.8229 58.3333C46.8229 61.4275 48.0521 64.395 50.24 66.5829C52.4279 68.7708 55.3954 70 58.4896 70C61.5838 70 64.5512 68.7708 66.7392 66.5829C68.9271 64.395 70.1563 61.4275 70.1563 58.3333C70.1563 57.4583 70.1562 56.5833 69.8646 55.7083L84.7396 40.8333H93.4896L116.823 17.5H99.3229V0ZM58.4896 23.3333C49.207 23.3333 40.3046 27.0208 33.7408 33.5846C27.1771 40.1484 23.4896 49.0508 23.4896 58.3333C23.4896 67.6159 27.1771 76.5183 33.7408 83.0821C40.3046 89.6458 49.207 93.3333 58.4896 93.3333C67.7722 93.3333 76.6745 89.6458 83.2383 83.0821C89.8021 76.5183 93.4896 67.6159 93.4896 58.3333H81.8229C81.8229 64.5217 79.3646 70.4566 74.9887 74.8325C70.6129 79.2083 64.678 81.6667 58.4896 81.6667C52.3012 81.6667 46.3663 79.2083 41.9904 74.8325C37.6146 70.4566 35.1563 64.5217 35.1563 58.3333C35.1563 52.1449 37.6146 46.21 41.9904 41.8342C46.3663 37.4583 52.3012 35 58.4896 35V23.3333Z" fill="#0A113F"/>
</svg>
