<svg xmlns="http://www.w3.org/2000/svg" width="45" height="45" viewBox="0 0 45 45" fill="none">
  <path fill-rule="evenodd" clip-rule="evenodd" d="M23.5 39.375C25.7161 39.375 27.9104 38.9385 29.9578 38.0905C32.0052 37.2424 33.8654 35.9994 35.4324 34.4324C36.9994 32.8654 38.2424 31.0052 39.0905 28.9578C39.9385 26.9104 40.375 24.7161 40.375 22.5C40.375 20.2839 39.9385 18.0896 39.0905 16.0422C38.2424 13.9948 36.9994 12.1346 35.4324 10.5676C33.8654 9.00058 32.0052 7.75758 29.9578 6.90953C27.9104 6.06148 25.7161 5.625 23.5 5.625C19.0245 5.625 14.7322 7.4029 11.5676 10.5676C8.4029 13.7322 6.625 18.0245 6.625 22.5C6.625 26.9755 8.4029 31.2677 11.5676 34.4324C14.7322 37.5971 19.0245 39.375 23.5 39.375ZM23.065 29.325L32.44 18.075L29.56 15.675L21.4975 25.3481L17.3256 21.1744L14.6744 23.8256L20.2994 29.4506L21.7506 30.9019L23.065 29.325Z" fill="#0A113F"/>
  <path fill-rule="evenodd" clip-rule="evenodd" d="M23.875 39.75C26.0911 39.75 28.2854 39.3135 30.3328 38.4655C32.3802 37.6174 34.2404 36.3744 35.8074 34.8074C37.3744 33.2404 38.6174 31.3802 39.4655 29.3328C40.3135 27.2854 40.75 25.0911 40.75 22.875C40.75 20.6589 40.3135 18.4646 39.4655 16.4172C38.6174 14.3698 37.3744 12.5096 35.8074 10.9426C34.2404 9.37558 32.3802 8.13258 30.3328 7.28453C28.2854 6.43648 26.0911 6 23.875 6C19.3995 6 15.1072 7.7779 11.9426 10.9426C8.7779 14.1072 7 18.3995 7 22.875C7 27.3505 8.7779 31.6427 11.9426 34.8074C15.1072 37.9721 19.3995 39.75 23.875 39.75ZM23.44 29.7L32.815 18.45L29.935 16.05L21.8725 25.7231L17.7006 21.5494L15.0494 24.2006L20.6744 29.8256L22.1256 31.2769L23.44 29.7Z" fill="#0A113F"/>
  <path fill-rule="evenodd" clip-rule="evenodd" d="M23.875 39.75C26.0911 39.75 28.2854 39.3135 30.3328 38.4655C32.3802 37.6174 34.2404 36.3744 35.8074 34.8074C37.3744 33.2404 38.6174 31.3802 39.4655 29.3328C40.3135 27.2854 40.75 25.0911 40.75 22.875C40.75 20.6589 40.3135 18.4646 39.4655 16.4172C38.6174 14.3698 37.3744 12.5096 35.8074 10.9426C34.2404 9.37558 32.3802 8.13258 30.3328 7.28453C28.2854 6.43648 26.0911 6 23.875 6C19.3995 6 15.1072 7.7779 11.9426 10.9426C8.7779 14.1072 7 18.3995 7 22.875C7 27.3505 8.7779 31.6427 11.9426 34.8074C15.1072 37.9721 19.3995 39.75 23.875 39.75ZM23.44 29.7L32.815 18.45L29.935 16.05L21.8725 25.7231L17.7006 21.5494L15.0494 24.2006L20.6744 29.8256L22.1256 31.2769L23.44 29.7Z" fill="#0A113F"/>
</svg>